<?xml version="1.0" encoding="UTF-8"?> <svg xmlns="http://www.w3.org/2000/svg" xmlns:xlink="http://www.w3.org/1999/xlink" id="Fielder_Logo" data-name="Fielder Logo" width="215.57" height="62.71" viewBox="0 0 215.57 62.71"><defs><linearGradient id="linear-gradient" x1="-1.197" y1="2.753" x2="1.109" y2="-0.309" gradientUnits="objectBoundingBox"><stop offset="0" stop-color="#dde15c"></stop><stop offset="1" stop-color="#99cc40"></stop></linearGradient></defs><text id="Fielder" transform="translate(80.57 47.49)" fill="#fff" font-size="45.94" font-family="Helvetica" letter-spacing="-0.02em"><tspan x="0" y="0">Fielder</tspan></text><path id="Path_22" data-name="Path 22" d="M29.63,0A29.638,29.638,0,0,0,0,29.64V62.71H33.07A29.638,29.638,0,0,0,62.7,33.07V0Zm3.9,21.37a17.012,17.012,0,0,1,13.45-5.05,17.061,17.061,0,0,1-5.27,13.36,17.081,17.081,0,0,1-13.45,5.05,17.058,17.058,0,0,1,5.28-13.36ZM19.83,40.26A17.065,17.065,0,0,1,14,27.13a17.1,17.1,0,0,1,5.83-13.14,17.079,17.079,0,0,1,5.82,13.14A17.091,17.091,0,0,1,19.83,40.26Zm15.75,8.45a17.1,17.1,0,0,1-13.14-5.83,17.087,17.087,0,0,1,13.14-5.83,17.065,17.065,0,0,1,13.13,5.83,17.065,17.065,0,0,1-13.13,5.83Z" fill="url(#linear-gradient)"></path></svg> 